<svg xmlns="http://www.w3.org/2000/svg" width="600" viewBox="0 0 450 300" height="400" version="1.0">
  <defs>
    <mask id="mask" x="0" y="0" width="100%" height="100%">
      <rect id="mask-rect" x="100%" y="0" width="100%" height="100%" fill="white" />
    </mask>

    <style>
        /* Keyframes to animate the mask from right to left */
        @keyframes reveal {
          0% { transform: translateX(0); }
          100% { transform: translateX(-100%); }
        }

        /* Keyframes to alternate the fill color after mask is filled */
        @keyframes colorChange {
          0% { fill: #036db4; }
          50% { fill: white; }
          100% { fill: #036db4; }
        }

        /* Animate the mask from right to left */
        #mask-rect {
          animation: reveal 5s forwards; /* Run once, no infinite loop */
        }

        /* Path style that waits for the mask to complete before starting color change */
        .masked-fill {
          mask: url(#mask);
          fill: #036db4;
          animation: colorChange 3s infinite; /* Color loop after reveal */
          animation-delay: 5s; /* Starts after the mask animation finishes */
        }
    </style>
  </defs>
  <path fill="#fff" d="M-45-30h540v360H-45z"/>
  <path d="M-45-30h540v360H-45z"/>
  <g clip-path="url(#a)">
    <path class="masked-fill" d="M222 30.96v20.333l-.434.094c-.597.125-1.539.613-2.02 1.043-1.01.898-1.538 2.078-1.538 3.414 0 1.304.402 2.281 1.336 3.215.676.675 1.277 1.03 2.125 1.246l.496.125.02 2.586c.015 2.418.007 2.593-.102 2.629-.672.203-1.293.722-1.59 1.332-.273.546-.32 1.335-.125 1.921l.137.399-.946.55c-.523.298-2.78 1.602-5.027 2.9a4718.807 4718.807 0 0 1-7.422 4.284c-8.39 4.844-12.055 6.961-12.945 7.477l-.965.55-.34-.355c-.914-.953-2.347-1.078-3.379-.3a2.56 2.56 0 0 0-.265 3.835c.355.348.89.617 1.367.68l.328.05v7.493l-1.027-.594c-.57-.328-1.985-1.144-3.157-1.812a134.539 134.539 0 0 1-2.203-1.282c-.054-.043-.035-.18.063-.46.3-.899 0-2.047-.688-2.66-.605-.532-1.387-.77-2.097-.637-.88.16-1.555.671-1.93 1.464-.184.391-.219.536-.219 1.012 0 .375.043.668.133.89.07.188.121.348.105.356-.015.016-.968.57-2.117 1.235-1.152.66-3.972 2.293-6.273 3.617-2.301 1.328-6.34 3.664-8.988 5.191a8361.39 8361.39 0 0 1-7.356 4.25l-2.543 1.477-.297-.332a2.77 2.77 0 0 0-.77-.567c-.429-.214-.515-.23-1.163-.23-.614.008-.739.027-1.051.187a4.261 4.261 0 0 0-.57.371l-.22.18-1.55-.898c-.86-.489-1.848-1.059-2.203-1.266-.356-.203-.656-.39-.676-.418-.016-.023.02-.203.074-.39a4.608 4.608 0 0 0-.562-3.938c-1.762-2.648-5.672-2.7-7.535-.086-.368.508-.696 1.305-.778 1.848l-.05.37-59.57.02-59.563.012v1.117h119.168l.043.188a4.668 4.668 0 0 0 1.246 2.285c.566.559 1.058.871 1.793 1.137.453.168.605.18 1.449.18.844 0 .996-.012 1.45-.18a4.423 4.423 0 0 0 1.76-1.11l.462-.453 2.222 1.285 2.223 1.282-.02.632c-.023.524 0 .711.126 1.04.293.78 1.05 1.406 1.937 1.597l.363.074v31.535l-.336.047c-.73.098-1.492.657-1.875 1.383-.18.34-.195.43-.195 1.137 0 .703.016.793.195 1.133.266.504.696.93 1.207 1.164.356.176.493.203 1.036.21.558 0 .68-.023 1.082-.218.273-.125.593-.356.8-.57l.356-.356.445.266c.254.144 1.617.933 3.031 1.75l2.774 1.601.191.118-2 1.152c-1.11.633-2.558 1.476-3.234 1.867l-1.234.703-.356-.375c-.523-.55-1.047-.773-1.82-.773-.516 0-.649.027-1.059.215-.562.265-.98.675-1.234 1.199-.16.34-.18.472-.18 1.12 0 .704.008.755.238 1.173.383.71 1.086 1.21 1.84 1.308l.328.051v31.547l-.191.035c-.813.168-1.191.367-1.645.871-.464.516-.617.989-.597 1.797l.02.649-1.673.957c-.914.527-1.91 1.105-2.214 1.28l-.543.313-.434-.425a4.574 4.574 0 0 0-1.82-1.137c-.493-.164-.653-.188-1.426-.188-.774 0-.934.024-1.43.188-.765.273-1.308.613-1.86 1.18-.808.828-1.347 2.187-1.304 3.296l.02.418-59.563.02-59.562.016v1.113h119.41l.246.46c.676 1.282 2.008 2.188 3.512 2.4 2.175.304 4.406-1.227 4.968-3.419.16-.64.149-1.77-.035-2.402-.082-.274-.125-.508-.097-.535.027-.031 1.03-.614 2.23-1.313l2.18-1.254.289.246c.422.352.96.543 1.586.543.738 0 1.226-.203 1.773-.726.227-.23.422-.41.438-.41.02 0 .98.55 6.605 3.797 4.711 2.726 10.285 5.937 16.516 9.535 2.265 1.3 4.125 2.383 4.14 2.39.008.012-.035.188-.105.391a2.815 2.815 0 0 0-.133.89c.008 1.212.879 2.215 2.149 2.446 1.078.203 2.203-.418 2.683-1.465.242-.535.285-1.289.102-1.84l-.137-.402.633-.371c.508-.29 4.062-2.348 5.457-3.149.16-.09.308-.168.328-.168.02 0 .043 1.672.043 3.723v3.715l-.316.043c-.758.101-1.532.68-1.895 1.426-.176.347-.195.476-.195 1.058 0 .613.02.707.23 1.13.63 1.276 2.125 1.784 3.422 1.16.176-.087.488-.325.684-.524l.367-.371 4.265 2.46c2.348 1.36 6.204 3.583 8.559 4.942 2.356 1.36 5.602 3.234 7.211 4.168 1.61.926 3.902 2.25 5.094 2.934l2.168 1.254-.137.398c-.191.563-.148 1.387.11 1.902.257.528.738.989 1.277 1.227l.445.195-.016 2.563-.02 2.57-.593.176c-.793.23-1.336.531-1.894 1.05-.829.782-1.297 1.68-1.45 2.782-.23 1.7.586 3.45 2.055 4.41.461.3 1.156.586 1.625.664l.293.047v37.41h1.113l.016-18.683.02-18.684.593-.172c.883-.258 1.352-.531 2.02-1.207.996-.988 1.36-1.855 1.351-3.242 0-.723-.027-.91-.195-1.39-.348-1.02-.945-1.821-1.77-2.356-.515-.344-1.21-.637-1.664-.711l-.3-.051v-5.184l.406-.183c.605-.278.945-.613 1.246-1.219.238-.48.258-.57.25-1.086 0-.348-.047-.691-.117-.879-.063-.176-.09-.336-.063-.363.055-.047 2.649-1.555 9.778-5.672a5552.68 5552.68 0 0 1 7.039-4.062l7.004-4.043c1.761-1.016 3.253-1.88 3.316-1.914.082-.051.187.011.465.312.531.559 1.047.781 1.828.781.773 0 1.297-.222 1.812-.765.543-.575.66-.895.66-1.774 0-.668-.015-.765-.195-1.097-.39-.743-1.129-1.286-1.875-1.383l-.332-.047v-3.715c0-2.05.028-3.723.055-3.723s.695.371 1.476.825c.79.453 2.215 1.273 3.172 1.824.961.55 1.75 1.004 1.762 1.02.016.003-.043.199-.125.437a2.33 2.33 0 0 0-.027 1.476c.222.762.691 1.29 1.433 1.625 1.614.723 3.422-.39 3.528-2.175.02-.418 0-.625-.11-.942l-.148-.394.152-.098c.086-.05 1.696-.984 3.57-2.062 1.88-1.09 5.458-3.153 7.946-4.586 2.492-1.442 5.328-3.082 6.312-3.645.977-.566 3.465-2 5.528-3.191 2.054-1.192 3.77-2.168 3.797-2.168.027 0 .16.132.3.3.133.165.43.395.653.516.968.516 2.023.418 2.894-.266l.25-.195.207.133c.121.07 1.102.633 2.192 1.262 1.086.617 1.992 1.14 2.004 1.148.015.016-.047.277-.13.594-.19.695-.202 1.7-.034 2.328.71 2.688 3.53 4.16 6.097 3.16 1.496-.578 2.617-1.957 2.89-3.566l.044-.258h123.969v-1.113l-61.997-.016-61.996-.02-.152-.523c-.238-.816-.563-1.36-1.191-1.988-.438-.438-.684-.625-1.157-.856-1.785-.879-3.785-.578-5.207.79l-.527.5-2.059-1.184c-1.132-.649-2.125-1.227-2.199-1.281-.129-.086-.14-.176-.14-.778 0-.613-.02-.715-.223-1.14-.363-.774-.957-1.247-1.766-1.415l-.383-.085-.02-15.782-.015-15.793.328-.05c.188-.028.516-.137.739-.258A2.502 2.502 0 0 0 297.34 156a2.517 2.517 0 0 0-4.211-1.05l-.402.41-2.106-1.212c-3.254-1.875-4.187-2.418-4.25-2.472-.027-.035 1.387-.895 3.156-1.918l3.211-1.86.317.348c.199.223.488.43.78.578.419.207.52.23 1.095.23.57 0 .675-.023 1.086-.222a2.65 2.65 0 0 0 1.234-1.262c.16-.336.188-.496.188-1.027 0-.527-.028-.688-.188-1.023-.355-.758-1.137-1.372-1.91-1.493l-.309-.039v-15.77c0-14.316.008-15.773.114-15.812a.868.868 0 0 1 .257-.043c.207 0 .852-.308 1.164-.558.594-.465.934-1.317.891-2.203l-.02-.52 2.196-1.277 2.195-1.27.563.524c1.84 1.73 4.55 1.687 6.336-.098.39-.383.648-.711.824-1.059.27-.523.535-1.414.535-1.812v-.23h123.976v-1.114l-62.039-.016-62.027-.02-.125-.362c-.48-1.407-1.547-2.489-2.922-2.946-.633-.21-1.812-.265-2.472-.113a4.594 4.594 0 0 0-3.38 5.68c.083.312.145.578.13.594-.02.011-4.258 2.453-4.403 2.527-.027.023-.168-.07-.308-.195-.465-.403-.809-.516-1.586-.516-.63 0-.739.023-1.118.203-.23.117-.562.363-.746.543-.18.184-.34.336-.367.336-.023 0-.629-.344-1.347-.762-.715-.41-3.461-2-6.11-3.523-2.64-1.528-6.691-3.864-8.992-5.192-2.297-1.324-5.637-3.257-7.422-4.289a425.876 425.876 0 0 1-3.316-1.922c-.055-.043-.035-.18.062-.46.192-.57.14-1.325-.117-1.86a2.755 2.755 0 0 0-1.27-1.242c-.382-.18-.542-.215-.988-.215-.726 0-1.219.195-1.75.692-.746.687-1.015 1.68-.71 2.597.085.246.148.445.132.461-.168.117-6.348 3.656-6.398 3.656-.047 0-.063-1.328-.055-3.707l.02-3.707.3-.054a2.594 2.594 0 0 0 1.832-1.325c.23-.418.239-.472.239-1.171 0-.66-.02-.774-.196-1.13a2.526 2.526 0 0 0-2.277-1.398c-.738 0-1.234.2-1.77.723-.23.23-.425.41-.441.41-.008 0-2.25-1.29-4.98-2.871-2.735-1.574-7.68-4.43-11-6.348-3.317-1.91-7.211-4.152-8.653-4.98-2.289-1.313-2.629-1.535-2.601-1.653.265-.968.265-1.02.183-1.476-.16-.895-.664-1.547-1.449-1.918l-.441-.211v-5.211h.16c.273 0 1.144-.328 1.582-.594a4.668 4.668 0 0 0 2-2.508c.152-.472.183-.683.187-1.394 0-.945-.054-1.211-.457-2.055-.23-.488-.39-.695-.886-1.183-.668-.664-1.27-1.012-2.133-1.235l-.489-.133-.02-20.328-.015-20.328H222Zm-.152 39.563.152.04v47.976l-.488.117c-1.633.39-2.95 1.68-3.387 3.332-.152.582-.16 1.621 0 2.223.215.844.563 1.441 1.219 2.09.683.683 1.289 1.039 2.113 1.246l.508.133.02 5.644.015 5.645-.195.05c-.176.036-.746-.273-4.086-2.203l-3.871-2.238v-22.144l.191-.036c.809-.16 1.41-.523 1.809-1.109.87-1.27.375-3.074-1.028-3.727-.332-.16-.472-.183-1.078-.183-.62 0-.738.023-1.09.195a3.05 3.05 0 0 0-.742.567l-.351.367-.899-.524c-1.351-.785-11.7-6.757-15.191-8.773l-3.086-1.777v-8.996l.285-.305c.285-.313.621-.926.621-1.153 0-.16-.078-.117 4.598-2.812 2.246-1.29 5.472-3.156 7.18-4.14 1.706-.989 4.152-2.4 5.433-3.137 1.281-.739 3.813-2.196 5.61-3.239 4.406-2.547 5.5-3.172 5.542-3.172.02 0 .102.02.196.043Zm7.14 3.106c2.996 1.73 6.957 4.016 8.797 5.074 1.84 1.067 4.426 2.559 5.746 3.324 1.324.758 3.73 2.153 5.348 3.082l2.934 1.7.082.32c.09.367.285.695.609 1.058l.226.258-.011 4.508-.024 4.512-1.773 1.023c-.977.563-3.813 2.203-6.309 3.645a4166.07 4166.07 0 0 1-10.668 6.152l-.363.203-.355-.37c-.204-.2-.524-.446-.754-.552-.356-.164-.489-.187-1.102-.187-.633 0-.73.023-1.101.21-.883.438-1.391 1.29-1.399 2.302 0 .484.027.625.215 1.023.344.723.996 1.273 1.695 1.414.133.02.297.063.367.078.114.031.122.625.122 11.106v11.074l-.434.258a6557.7 6557.7 0 0 1-3.883 2.246c-3.058 1.762-3.46 1.976-3.621 1.922l-.184-.063-.02-5.633c-.015-4.464 0-5.629.071-5.648 1.301-.352 1.813-.594 2.48-1.191.489-.442.97-1.196 1.227-1.91.188-.54.207-.692.207-1.438.008-1.387-.355-2.25-1.343-3.238-.668-.664-1.27-1.012-2.133-1.235l-.489-.133.008-23.96c.008-25.329-.008-24.075.293-24.083.047 0 2.535 1.415 5.54 3.149Zm-47.367 20.414c.274.047.48.039.836-.035l.48-.098 3.883 2.242 3.89 2.239v22.175l-.335.047c-.746.098-1.512.676-1.875 1.422-.176.348-.195.473-.195 1.059 0 .613.02.703.23 1.129.445.914 1.246 1.402 2.278 1.41.488 0 .628-.028 1.046-.23.32-.15.598-.348.817-.575l.324-.348 2.777 1.598c1.524.883 4.25 2.453 6.047 3.492 1.805 1.035 4.863 2.809 6.809 3.93l3.535 2.035.004 4.488c0 4.082-.012 4.5-.117 4.618-.063.07-.14.129-.176.129-.031 0-2.242-1.262-4.906-2.805-4.278-2.465-4.84-2.813-4.813-2.938.02-.086.082-.351.153-.601.18-.684.117-1.883-.141-2.578-.758-2.047-2.781-3.297-4.879-3.004-1.086.152-2.074.648-2.777 1.394l-.32.356-3.16-1.828c-5.36-3.094-11.462-6.618-15.938-9.196-2.356-1.36-6.102-3.527-8.328-4.808-2.223-1.29-4.465-2.578-4.98-2.88-.747-.425-4.935-2.843-8.665-4.995-.43-.254-.465-.285-.426-.461.031-.106.051-.196.059-.196.008-.007 3.176-1.84 7.043-4.07 3.875-2.238 8.433-4.87 10.14-5.851l7.004-4.043c2.149-1.235 3.938-2.282 3.973-2.317.043-.031.133-.039.21-.02.075.02.298.071.493.114Zm81.188 0c.273.047.48.039.836-.035l.48-.098 3.348 1.938c4.074 2.355 10.75 6.207 13.586 7.847 11.488 6.618 11.359 6.543 11.359 6.75 0 .188-.195.309-3.55 2.254-3.333 1.922-5.52 3.184-16.345 9.434-2.355 1.36-6.32 3.652-8.816 5.086-2.488 1.445-6.375 3.687-8.633 4.992l-4.113 2.375-.535-.508c-1.45-1.36-3.422-1.66-5.192-.773a4.439 4.439 0 0 0-2.3 2.66c-.18.547-.204.707-.196 1.45 0 .655.035.933.153 1.288.086.246.14.453.132.461-.07.059-9.527 5.5-9.644 5.555-.11.05-.188.043-.266-.02-.09-.078-.101-.64-.101-4.637v-4.55l1.066-.606c1.54-.883 15.004-8.668 17.895-10.336.168-.101.187-.093.5.246.984 1.047 2.511 1.114 3.57.153.223-.207.453-.508.57-.746.176-.356.196-.465.196-1.13 0-.66-.02-.765-.188-1.093-.398-.746-.906-1.148-1.73-1.352l-.453-.117v-22.14l3.87-2.246c2.618-1.516 3.907-2.227 4.005-2.207.078.011.3.062.496.105Zm-65.641 8.082c2.602 1.504 5.668 3.277 6.816 3.938 1.149.664 3.246 1.874 4.664 2.69l2.563 1.485.125.39c.121.395.426.9.691 1.134l.145.133v10.832c0 5.949-.027 10.82-.063 10.82-.027 0-1.62-.906-3.53-2.004l-13.583-7.844c-1.59-.91-1.707-.988-1.707-1.156 0-.215-.344-.836-.621-1.14l-.285-.31v-10.847c0-5.969.012-10.844.035-10.844.012 0 2.152 1.227 4.75 2.723Zm55.562 8.121v10.848l-.242.265c-.273.301-.55.825-.62 1.157-.044.183-.134.273-.446.445-.402.23-6.356 3.668-11.758 6.789-5.004 2.89-6.586 3.797-6.617 3.797-.024 0-.035-4.879-.035-10.844v-10.848l.242-.265c.266-.293.55-.824.621-1.145.047-.222-.383.035 9.656-5.754 1.25-.718 3.809-2.203 5.68-3.289 1.883-1.093 3.437-1.988 3.473-1.996.027-.004.046 4.871.046 10.84Zm-96.132 3.965c2.34 1.352 6.082 3.52 8.328 4.809 4.027 2.324 8.941 5.164 17.558 10.136 2.434 1.41 5.778 3.34 7.422 4.29 1.653.945 3.164 1.824 3.367 1.94.258.157.348.247.32.321-.195.461-.265.941-.265 1.707 0 .734.027.906.195 1.395.497 1.445 1.547 2.468 3.004 2.933.703.23 1.766.258 2.477.07a4.969 4.969 0 0 0 2.055-1.171l.488-.473 1.914 1.102c7.004 4.027 7.805 4.507 7.805 4.648a.455.455 0 0 1-.055.215c-.027.043-1.016.637-2.207 1.316-1.188.684-2.906 1.68-3.828 2.211-.914.531-1.7.961-1.754.961-.05 0-1.29-.695-2.762-1.539-1.469-.852-3.656-2.117-4.863-2.816-1.207-.688-4.3-2.48-6.879-3.965l-4.684-2.703.121-.293c.18-.434.153-1.504-.042-1.946-.223-.496-.774-1.039-1.29-1.273-.378-.176-.515-.203-1.058-.203-.574 0-.676.02-1.094.23-.77.375-1.25 1.04-1.402 1.922-.063.371-.055.516.047.922.07.262.129.523.132.57.016.098-.402.348-4.898 2.942l-8.152 4.703c-3.243 1.867-5.946 3.414-6.008 3.437-.07.012-1.176-.586-2.649-1.437-1.394-.8-3.12-1.805-3.847-2.215-.715-.418-1.324-.797-1.336-.832-.223-.64-.38-.945-.63-1.258l-.304-.379v-16.32c0-14.969.004-16.328.11-16.438.09-.105.148-.113.265-.05.078.043 2.063 1.18 4.399 2.53Zm136.761 13.992v16.309l-.285.304c-.277.309-.62.926-.62 1.145 0 .062-.056.16-.118.215-.07.054-1.77 1.05-3.785 2.215a735.249 735.249 0 0 0-3.797 2.195c-.152.098.14.258-8.082-4.492-1.84-1.063-5.102-2.942-7.25-4.184-2.145-1.234-3.922-2.265-3.95-2.293-.03-.02.012-.23.098-.46.395-1.16-.183-2.481-1.332-3.052-.41-.203-.515-.222-1.09-.222-.57 0-.675.02-1.086.222a2.65 2.65 0 0 0-1.234 1.262c-.16.34-.187.488-.18 1.024 0 .441.036.71.118.898.07.156.097.3.07.328-.035.028-2.188 1.281-4.793 2.781l-13.527 7.813c-.383.23-.746.41-.79.41-.081 0-1.398-.754-6.277-3.566-1.18-.684-1.512-.907-1.562-1.055-.035-.102-.055-.195-.035-.207.015-.016 1.484-.871 3.27-1.895 1.784-1.03 3.972-2.293 4.87-2.808l1.625-.942.27.32c.343.391 1.172.962 1.715 1.165 1.835.695 3.812.215 5.117-1.242.394-.446.844-1.309 1.004-1.93.152-.594.132-1.637-.036-2.3-.078-.306-.12-.571-.09-.599.048-.05 5.77-3.367 8.766-5.082.688-.394 2.621-1.511 4.285-2.472 1.664-.969 3.895-2.25 4.95-2.856 1.05-.609 2.87-1.66 4.039-2.336 1.172-.675 2.867-1.652 3.765-2.175a1705.7 1705.7 0 0 0 5.47-3.157c2.112-1.218 5.163-2.98 6.796-3.914 1.629-.941 3.05-1.773 3.168-1.84.203-.128.21-.128.363.02l.16.145Zm-77.27 9.602c1.2.699 2.641 1.527 3.2 1.847l1.016.594-.137.395c-.106.308-.125.53-.106.957.055.988.551 1.722 1.465 2.144l.473.223v3.332c0 1.832-.027 3.324-.055 3.312-.035-.015-1.324-.754-2.879-1.652l-2.824-1.633.008-.703c0-.621-.02-.754-.188-1.101-.355-.766-1.136-1.372-1.91-1.493l-.304-.039v-3.722c0-2.047.011-3.723.03-3.723.017 0 1.013.566 2.212 1.262Zm15.18 2.453v3.715l-.417.086c-1.243.257-2.184 1.593-1.98 2.812l.07.414-.383.227c-.762.453-5.375 3.11-5.41 3.11-.02 0-.036-1.505-.036-3.337v-3.34l.336-.11c.598-.202 1.14-.733 1.457-1.417.153-.332.188-.5.18-.961 0-.332-.047-.684-.117-.863-.09-.25-.098-.328-.028-.39.047-.048.75-.462 1.555-.919.805-.469 2.2-1.27 3.098-1.793a71.48 71.48 0 0 1 1.66-.949c.008 0 .016 1.676.016 3.715Zm-49.535.656c.235.02.578.008.809-.047l.41-.086 2.223 1.29c2.89 1.671 10.113 5.84 13.652 7.874 1.531.887 2.817 1.625 2.844 1.653.035.027-.488.363-1.152.746-2.465 1.43-9.903 5.722-13.692 7.91l-3.918 2.262-.43-.102c-.363-.09-.511-.098-.894-.023-.25.05-.488.093-.527.093-.036 0-1.653-.914-3.59-2.035a1718.9 1718.9 0 0 0-6.762-3.902c-7.324-4.23-8.383-4.852-8.383-4.914.008-.035.692-.461 1.528-.942.843-.488 3.796-2.195 6.578-3.796 2.78-1.606 6.293-3.633 7.804-4.512 2.184-1.258 2.79-1.586 2.926-1.551.098.02.356.055.574.082Zm81.188 0c.226.02.57.008.808-.047l.403-.086 9.05 5.235c4.985 2.87 9.215 5.316 9.395 5.43l.344.195-3.305 1.906c-1.812 1.047-5.332 3.082-7.824 4.52a1424.754 1424.754 0 0 1-6.121 3.53l-1.582.919-.43-.102c-.355-.09-.504-.098-.887-.023-.25.05-.488.093-.527.093-.035 0-1.387-.754-3-1.687-3.379-1.953-10.25-5.926-13.566-7.84-1.254-.727-2.278-1.316-2.266-1.324.02-.024 5.938-3.442 12.418-7.18 2.648-1.523 5.156-2.973 5.574-3.219.582-.336.809-.437.942-.402.097.02.355.055.574.082Zm-51.043 7.332c.594.688 1.652 1.004 2.531.75.313-.094.766-.34 1.145-.633.101-.074 5.851 3.227 5.77 3.313-.071.066-5.208 3.035-5.5 3.176-.208.105-.223.097-.536-.141-.453-.348-.95-.5-1.582-.492-.746.008-1.227.207-1.75.73l-.418.418-2.906-1.687c-1.594-.918-3.047-1.754-3.207-1.852-.164-.098-.278-.203-.242-.23.027-.028 1.308-.774 2.843-1.66 1.532-.875 2.95-1.692 3.137-1.813.195-.117.36-.215.383-.215.02-.008.168.149.332.336Zm24.914 1.512c1.77 1.023 3.227 1.86 3.234 1.867.016.016-1.804 1.074-5.254 3.05l-1.191.692-.32-.34a2.509 2.509 0 0 0-1.485-.797 2.428 2.428 0 0 0-1.847.434c-.215.152-.418.277-.446.277-.02 0-1.324-.738-2.894-1.644-2.485-1.434-2.836-1.656-2.73-1.734.07-.047 1.288-.754 2.702-1.567 1.422-.816 2.665-1.527 2.762-1.582.168-.105.196-.094.535.145.196.148.54.32.762.406.871.305 1.965.012 2.598-.692.176-.195.32-.355.336-.363.011-.008 1.468.828 3.238 1.848Zm-74.113 4.078c1.136.66 3.36 1.941 4.93 2.848 1.574.906 4.933 2.851 7.476 4.32 4.187 2.418 4.621 2.684 4.578 2.816-.23.703-.266.985-.195 1.414.152.88.633 1.543 1.402 1.918.422.207.516.23 1.129.23.578 0 .707-.023 1.05-.195.473-.23 1.06-.832 1.262-1.28.215-.497.25-1.27.07-1.802a4.105 4.105 0 0 1-.132-.425c.008-.004 1.52-.883 3.36-1.942 1.84-1.066 4.847-2.8 6.687-3.867l6.168-3.562c1.555-.891 2.887-1.633 2.96-1.633.134 0 7.458 4.191 7.723 4.414.336.293.399.25-4.562 3.113-2.582 1.492-4.774 2.762-4.879 2.817-.187.109-.195.105-.406-.149-.883-1.062-2.57-1.707-3.992-1.516-2.274.313-3.895 2.083-4 4.356-.028.652.082 1.379.285 1.851.043.09-.25.286-1.434.97l-6.433 3.714c-2.72 1.566-6.88 3.973-9.235 5.332-2.355 1.36-6.09 3.512-8.293 4.785-2.203 1.278-6.062 3.5-8.57 4.95l-6.059 3.5c-1.414.82-1.496.855-1.613.746-.129-.121-.133-.61-.133-16.457v-16.329l.305-.375c.168-.207.379-.558.453-.785.086-.226.16-.441.176-.476.012-.04 1.336-.82 2.941-1.742a593.022 593.022 0 0 0 3.817-2.208c.504-.292.957-.539 1.004-.539.05-.003 1.02.532 2.16 1.188Zm59.27 5.496a2.399 2.399 0 0 1-.403.176c-.434.16-1.055.765-1.29 1.254-.23.496-.273 1.324-.085 1.867l.133.406-.493.285c-.273.153-.671.383-.878.508-.985.578-5.02 2.89-5.055 2.89-.02 0-.031-1.671-.031-3.718v-3.715l.312-.043c.785-.113 1.504-.66 1.867-1.43.203-.43.223-.523.223-1.167l-.008-.7.668-.375c.363-.21 1.653-.957 2.86-1.652l2.195-1.27.02 3.32c.007 1.825-.008 3.345-.036 3.364Zm6.948-3.156c-.078.426-.015 1.11.133 1.5.293.758 1.13 1.433 1.93 1.558l.309.043v3.727c0 2.098-.032 3.715-.063 3.703-.035-.016-1.48-.836-3.207-1.832-2.73-1.578-3.137-1.836-3.11-1.953.258-.95.266-1.016.184-1.477-.191-1.023-.84-1.757-1.836-2.07-.117-.035-.125-.258-.125-3.34 0-1.816.016-3.316.043-3.336.02-.023 1.324.703 2.906 1.617 2.82 1.637 2.872 1.664 2.836 1.86Zm13.305-3.297c.402.246 13.977 8.086 17.656 10.195.825.477 1.028.621.985.711-.703 1.707.37 3.5 2.168 3.617 1.789.114 3.136-1.636 2.543-3.332-.07-.207-.114-.402-.082-.422.027-.023.722-.425 1.547-.902 1.468-.836 5.523-3.184 13.511-7.797 2.196-1.27 4.028-2.304 4.07-2.304.036 0 1.329.722 2.864 1.613 1.539.887 3.234 1.863 3.77 2.168 1.163.672 1.19.691 1.245.976.067.328.301.746.61 1.059l.27.285v32.621l-.16.149-.16.144-4.767-2.75c-2.628-1.52-6.62-3.828-8.886-5.129-3.84-2.219-5.992-3.465-17.594-10.164-2.477-1.426-5.8-3.344-7.395-4.262l-2.894-1.68.14-.39c.09-.265.149-.648.168-1.191.028-.684.008-.895-.117-1.36-.425-1.535-1.55-2.718-3.039-3.199-1.64-.523-3.457-.062-4.691 1.2l-.367.374-.364-.207c-.203-.113-1.98-1.144-3.953-2.28a1320.756 1320.756 0 0 1-4.508-2.606c-.925-.532-1.02-.63-.835-.856.042-.062 1.199-.762 2.558-1.543 1.356-.785 3.07-1.777 3.797-2.195.73-.422 1.367-.774 1.422-.777.047 0 .27.101.488.234Zm-30.156 5.734c.121.106.125.344.125 4.614v4.503l-2.074 1.2a4433.56 4433.56 0 0 0-6.739 3.886l-10.3 5.946c-.036.015-.239-.14-.454-.356-.468-.445-.8-.633-1.378-.746-1.067-.207-2.254.418-2.735 1.45-.16.343-.187.488-.187 1.058 0 .594.02.707.203 1.074.367.746 1.078 1.29 1.867 1.422l.3.055.02 11.074.016 11.082-.61.355c-4.945 2.872-7.12 4.098-7.23 4.09l-.68-.062c-.332-.028-.652-.016-.855.035l-.313.074-4.203-2.422a4424.99 4424.99 0 0 0-8.586-4.965c-3.957-2.285-11.601-6.695-14.39-8.304-.594-.344-1.086-.633-1.094-.633-.008-.008-.027-.098-.055-.195-.043-.16-.007-.203.258-.356.367-.21 3.656-2.105 8.73-5.039 3.91-2.254 9.626-5.555 16.864-9.738 2.226-1.281 6.21-3.582 8.851-5.106 2.649-1.527 5.254-3.03 5.793-3.347l.989-.57.515.495c1.438 1.387 3.52 1.688 5.305.758.71-.363 1.602-1.265 1.941-1.972.149-.286.309-.723.364-.973.148-.602.14-1.676 0-2.195-.063-.23-.125-.48-.145-.559-.027-.125.383-.383 2.953-1.867 1.637-.95 3.813-2.203 4.828-2.797 1.02-.59 1.875-1.078 1.91-1.078.036-.008.126.043.196.11Zm26.105 2.684c2.668 1.535 4.864 2.8 4.871 2.808.008 0-.046.211-.125.454-.335 1.074-.222 2.336.309 3.414.57 1.172 1.805 2.132 3.086 2.406 1.59.336 3.297-.203 4.383-1.395l.277-.304 2.195 1.273c1.207.695 4.364 2.524 7.004 4.05 5.864 3.38 12.309 7.099 25.961 14.99 2.242 1.296 4.578 2.64 5.192 2.995 1.023.586 1.113.657 1.113.836 0 .219.902-.312-13.102 7.766-2.41 1.39-5.859 3.387-7.664 4.422-8.21 4.746-7.527 4.37-7.82 4.293-.34-.098-1.023-.098-1.363 0-.258.07-.285.058-2.23-1.07-1.083-.63-2.837-1.641-3.9-2.255l-1.933-1.105.02-11.082.012-11.078.343-.05c.739-.106 1.492-.685 1.86-1.43.148-.286.168-.438.168-1.067 0-.66-.02-.773-.196-1.129a2.535 2.535 0 0 0-2.277-1.398c-.738 0-1.227.203-1.77.722-.23.23-.433.414-.441.414-.012 0-.766-.433-1.68-.957-2.918-1.68-10.465-6.043-14-8.082l-3.433-1.988v-4.543c0-4.543.004-4.71.222-4.71.036 0 2.25 1.26 4.918 2.8Zm-16.304 2.957.152.039v11.312l-.508.118a4.616 4.616 0 0 0-3.191 2.8c-.992 2.559.535 5.465 3.203 6.094l.496.11v47.972l-.203.051c-.176.035-.633-.21-3.36-1.785-1.742-1.004-4.882-2.82-6.996-4.035a6381.503 6381.503 0 0 0-8.05-4.649c-2.32-1.336-5.485-3.168-7.036-4.062-1.554-.89-2.878-1.672-2.94-1.727-.071-.058-.126-.152-.126-.219 0-.214-.344-.835-.621-1.14l-.285-.309v-8.972l3.156-1.829c1.727-.996 5.066-2.925 7.402-4.27 2.34-1.355 4.938-2.85 5.782-3.339.843-.488 1.828-1.05 2.183-1.262l.64-.367.419.395c.46.441.836.636 1.43.746 1.023.187 2.16-.434 2.66-1.457.175-.348.195-.473.195-1.059s-.02-.71-.195-1.058c-.348-.704-1.047-1.278-1.723-1.415a6.84 6.84 0 0 1-.36-.078c-.12-.035-.124-.62-.124-11.101V168.69l3.886-2.238c2.133-1.23 3.895-2.242 3.918-2.242.02 0 .102.02.196.043Zm4.808 1.762c1.711.988 3.442 1.992 3.844 2.222l.734.418v22.203l-.316.055c-.695.121-1.461.7-1.797 1.352-.516 1.011-.27 2.23.594 3.027.488.445 1.004.648 1.707.648.48.004.586-.023 1.058-.254.336-.164.622-.367.793-.57.157-.172.301-.312.32-.312.032 0 .825.445 1.774.996.946.55 2.457 1.422 3.356 1.945 3.73 2.152 9.882 5.707 11.117 6.418.73.418 1.68.961 2.113 1.211l.777.453v8.996l-.242.266c-.273.3-.55.824-.62 1.156-.048.203-.18.293-1.528 1.074-1.781 1.032-8.961 5.172-14.262 8.239-2.129 1.226-4.258 2.46-4.742 2.73-.48.277-2.402 1.395-4.285 2.473-1.875 1.09-3.477 1.988-3.555 2a.386.386 0 0 1-.242-.04c-.09-.062-.106-2.808-.106-24.023v-23.945l.594-.172c.883-.258 1.352-.531 2.02-1.207.996-.988 1.36-1.852 1.351-3.242 0-.723-.027-.91-.195-1.39-.52-1.52-1.664-2.587-3.211-3.005l-.559-.148-.02-5.602c-.015-5.207-.007-5.61.106-5.695a.542.542 0 0 1 .207-.082c.051 0 1.5.809 3.215 1.805Zm-14.484 14.558v10.856l-.25.246c-.27.258-.496.64-.621 1.074-.09.313.523-.059-8.988 5.426-2.375 1.375-5.54 3.199-7.024 4.062a223.08 223.08 0 0 1-2.805 1.606c-.09.027-.101-1.367-.101-10.817v-10.859l.285-.305c.285-.312.621-.925.621-1.148 0-.168-1.285.582 12.332-7.27 1.785-1.03 3.965-2.285 4.844-2.8.887-.512 1.625-.93 1.66-.93.027 0 .047 4.887.047 10.86Zm24.195-8.949c3.27 1.89 10.715 6.188 13.844 7.988.883.516 1.613.973 1.613 1.024 0 .238.317.863.594 1.183l.312.356v10.844c0 5.964-.011 10.843-.035 10.843-.011 0-.722-.402-1.582-.898-.855-.496-3.87-2.238-6.71-3.875-11.68-6.738-10.481-6.02-10.563-6.34a2.725 2.725 0 0 0-.586-1.074l-.242-.266V180.56c0-5.965.011-10.844.027-10.844.012 0 1.512.86 3.328 1.91Zm0 0"/>
  </g>
</svg>