<svg xmlns="http://www.w3.org/2000/svg" xmlns:xlink="http://www.w3.org/1999/xlink" width="180" zoomAndPan="magnify" viewBox="0 0 135 52.499999" height="70" preserveAspectRatio="xMidYMid meet" version="1.0"><defs><g/><clipPath id="9af851e5da"><path d="M 13.238281 5.707031 L 54.839844 5.707031 L 54.839844 46.566406 L 13.238281 46.566406 Z M 13.238281 5.707031 " clip-rule="nonzero"/></clipPath><clipPath id="599afe39a3"><path d="M 37.691406 10.402344 C 38.210938 10.402344 38.628906 10.820312 38.628906 11.339844 C 38.628906 11.859375 38.210938 12.277344 37.691406 12.277344 C 37.171875 12.277344 36.753906 11.859375 36.753906 11.339844 C 36.753906 10.820312 37.171875 10.402344 37.691406 10.402344 Z M 53.035156 25.648438 C 53.035156 26.117188 52.691406 26.5 52.238281 26.570312 C 51.996094 30.039062 50.816406 33.253906 48.949219 35.964844 C 49.304688 36.308594 49.527344 36.785156 49.527344 37.316406 C 49.527344 38.351562 48.6875 39.191406 47.652344 39.191406 C 47.234375 39.191406 46.851562 39.050781 46.539062 38.820312 C 43.808594 41.480469 40.285156 43.328125 36.355469 43.964844 C 36.355469 43.984375 36.363281 44 36.363281 44.019531 C 36.363281 45.421875 35.222656 46.554688 33.824219 46.554688 C 32.449219 46.554688 31.339844 45.46875 31.289062 44.109375 C 25.621094 43.515625 20.683594 40.417969 17.613281 35.945312 C 17.425781 36.046875 17.214844 36.109375 16.988281 36.109375 C 16.257812 36.109375 15.660156 35.515625 15.660156 34.78125 C 15.660156 34.3125 15.90625 33.902344 16.273438 33.667969 C 15.003906 31.125 14.289062 28.261719 14.289062 25.230469 C 14.289062 24.230469 14.375 23.242188 14.53125 22.273438 C 13.78125 22.023438 13.238281 21.328125 13.238281 20.496094 C 13.238281 19.460938 14.078125 18.621094 15.113281 18.621094 C 15.238281 18.621094 15.359375 18.636719 15.476562 18.65625 C 17.183594 14.078125 20.625 10.21875 25.175781 8.066406 C 25.183594 8.0625 25.195312 8.058594 25.207031 8.050781 C 25.167969 7.902344 25.140625 7.75 25.140625 7.589844 C 25.140625 6.554688 25.984375 5.714844 27.019531 5.714844 C 27.773438 5.714844 28.421875 6.164062 28.71875 6.804688 C 28.726562 6.804688 28.738281 6.800781 28.746094 6.796875 L 28.8125 7.074219 C 28.863281 7.238281 28.894531 7.410156 28.894531 7.589844 C 28.894531 7.941406 28.789062 8.273438 28.617188 8.554688 L 31.355469 10.628906 C 31.519531 10.488281 31.730469 10.398438 31.964844 10.398438 C 32.484375 10.398438 32.902344 10.816406 32.902344 11.335938 C 32.902344 11.636719 32.761719 11.898438 32.542969 12.070312 L 34.753906 16.585938 C 34.878906 16.546875 35.011719 16.519531 35.148438 16.519531 C 35.546875 16.519531 35.898438 16.695312 36.144531 16.972656 L 39.355469 14.90625 C 39.316406 14.804688 39.292969 14.695312 39.292969 14.578125 C 39.292969 14.058594 39.714844 13.640625 40.230469 13.640625 C 40.75 13.640625 41.171875 14.058594 41.171875 14.578125 C 41.171875 14.773438 41.109375 14.957031 41.003906 15.109375 L 45.085938 19.410156 C 45.300781 19.261719 45.558594 19.171875 45.84375 19.171875 C 46.574219 19.171875 47.171875 19.765625 47.171875 20.5 C 47.171875 21.164062 46.679688 21.710938 46.039062 21.804688 L 46.039062 29.496094 C 46.285156 29.53125 46.507812 29.632812 46.6875 29.785156 L 51.175781 25.789062 C 51.167969 25.742188 51.160156 25.695312 51.160156 25.648438 C 51.160156 25.128906 51.578125 24.710938 52.097656 24.710938 C 52.617188 24.710938 53.035156 25.128906 53.035156 25.648438 Z M 44.855469 21.375 L 40.222656 24.410156 C 40.226562 24.433594 40.230469 24.453125 40.230469 24.476562 C 40.230469 24.542969 40.222656 24.605469 40.210938 24.664062 L 45.078125 29.71875 C 45.242188 29.601562 45.4375 29.523438 45.644531 29.492188 L 45.644531 21.800781 C 45.332031 21.753906 45.058594 21.601562 44.855469 21.375 Z M 44.515625 30.796875 C 44.515625 30.492188 44.621094 30.21875 44.792969 29.992188 L 40.035156 25.042969 C 39.960938 25.140625 39.867188 25.222656 39.761719 25.285156 L 38.207031 31.390625 C 38.402344 31.472656 38.566406 31.601562 38.699219 31.757812 L 44.519531 30.8125 C 44.515625 30.808594 44.515625 30.804688 44.515625 30.796875 Z M 28.035156 18.875 C 27.699219 19.382812 27.121094 19.71875 26.46875 19.71875 C 26.058594 19.71875 25.683594 19.585938 25.375 19.363281 L 21.9375 23.222656 C 22.238281 23.550781 22.425781 23.984375 22.429688 24.460938 L 25.847656 24.792969 C 26.054688 23.601562 27.09375 22.691406 28.34375 22.691406 C 28.9375 22.691406 29.476562 22.902344 29.910156 23.242188 L 32.027344 20.9375 Z M 32.304688 20.640625 L 34.121094 18.671875 C 33.976562 18.492188 33.878906 18.277344 33.84375 18.039062 L 28.324219 18.039062 C 28.308594 18.210938 28.273438 18.375 28.214844 18.527344 Z M 33.824219 27.765625 C 33.824219 27.699219 33.832031 27.632812 33.847656 27.566406 L 30.710938 26.144531 C 30.34375 27.09375 29.425781 27.765625 28.34375 27.765625 C 28.066406 27.765625 27.804688 27.710938 27.554688 27.628906 L 25.914062 31.542969 C 26.105469 31.679688 26.257812 31.863281 26.351562 32.078125 L 33.828125 27.808594 C 33.828125 27.792969 33.824219 27.78125 33.824219 27.765625 Z M 21.621094 26.019531 L 24.570312 31.425781 C 24.746094 31.339844 24.9375 31.289062 25.140625 31.289062 C 25.289062 31.289062 25.429688 31.320312 25.5625 31.363281 L 27.191406 27.476562 C 26.371094 27.058594 25.804688 26.214844 25.804688 25.230469 C 25.804688 25.214844 25.808594 25.199219 25.808594 25.183594 L 22.390625 24.851562 C 22.292969 25.335938 22.011719 25.75 21.621094 26.019531 Z M 23.925781 33.140625 L 18.304688 34.636719 C 18.308594 34.683594 18.316406 34.730469 18.316406 34.777344 L 27.09375 36.394531 C 27.273438 35.871094 27.765625 35.496094 28.34375 35.496094 C 28.5625 35.496094 28.761719 35.554688 28.941406 35.644531 L 34.074219 28.398438 C 34.019531 28.339844 33.972656 28.273438 33.933594 28.199219 L 26.453125 32.472656 C 26.460938 32.519531 26.46875 32.566406 26.46875 32.613281 C 26.46875 33.347656 25.871094 33.941406 25.140625 33.941406 C 24.597656 33.941406 24.128906 33.613281 23.925781 33.140625 Z M 34.761719 26.828125 C 35.011719 26.828125 35.238281 26.929688 35.40625 27.089844 L 38.496094 24.972656 C 38.40625 24.828125 38.351562 24.660156 38.351562 24.476562 C 38.351562 24.390625 38.367188 24.3125 38.390625 24.234375 L 32.390625 21.128906 L 30.199219 23.507812 C 30.621094 23.960938 30.886719 24.5625 30.886719 25.230469 C 30.886719 25.414062 30.863281 25.59375 30.828125 25.765625 L 34.011719 27.210938 C 34.183594 26.980469 34.453125 26.828125 34.761719 26.828125 Z M 35.402344 28.449219 L 37.179688 31.390625 C 37.339844 31.324219 37.511719 31.289062 37.691406 31.289062 C 37.734375 31.289062 37.777344 31.296875 37.820312 31.300781 L 39.320312 25.410156 C 39.3125 25.410156 39.304688 25.414062 39.292969 25.414062 C 39.101562 25.414062 38.925781 25.355469 38.773438 25.257812 L 35.628906 27.410156 C 35.675781 27.519531 35.699219 27.636719 35.699219 27.761719 C 35.699219 28.035156 35.585938 28.277344 35.402344 28.449219 Z M 39.546875 23.582031 C 39.785156 23.648438 39.984375 23.804688 40.105469 24.015625 L 44.636719 21.046875 C 44.558594 20.878906 44.511719 20.691406 44.511719 20.496094 C 44.511719 20.1875 44.625 19.90625 44.796875 19.683594 L 40.714844 15.375 C 40.601562 15.445312 40.472656 15.488281 40.335938 15.503906 Z M 34.40625 18.941406 L 32.667969 20.828125 L 38.570312 23.886719 C 38.714844 23.710938 38.917969 23.589844 39.152344 23.554688 L 39.945312 15.46875 C 39.800781 15.421875 39.667969 15.347656 39.566406 15.238281 L 36.359375 17.300781 C 36.433594 17.46875 36.476562 17.652344 36.476562 17.84375 C 36.476562 18.578125 35.882812 19.171875 35.148438 19.171875 C 34.875 19.167969 34.617188 19.085938 34.40625 18.941406 Z M 27.820312 16.546875 C 28.097656 16.839844 28.277344 17.222656 28.324219 17.648438 L 33.84375 17.648438 C 33.898438 17.277344 34.105469 16.957031 34.398438 16.753906 L 32.191406 12.246094 C 32.121094 12.265625 32.046875 12.277344 31.96875 12.277344 C 31.808594 12.277344 31.660156 12.230469 31.527344 12.160156 Z M 26.761719 16 C 27.042969 16.042969 27.296875 16.140625 27.519531 16.292969 L 31.222656 11.910156 C 31.101562 11.753906 31.023438 11.554688 31.023438 11.339844 C 31.023438 11.199219 31.058594 11.066406 31.113281 10.945312 L 28.378906 8.871094 C 28.058594 9.214844 27.613281 9.429688 27.109375 9.457031 Z M 16.699219 19.5 C 16.773438 19.617188 16.832031 19.746094 16.878906 19.882812 L 24.613281 18.074219 C 24.605469 18 24.589844 17.921875 24.589844 17.84375 C 24.589844 16.84375 25.378906 16.03125 26.371094 15.976562 L 26.722656 9.433594 C 26.429688 9.386719 26.160156 9.277344 25.929688 9.109375 Z M 15.851562 18.773438 C 16.078125 18.871094 16.28125 19.011719 16.453125 19.183594 L 25.636719 8.847656 C 25.515625 8.722656 25.417969 8.574219 25.339844 8.417969 C 20.894531 10.523438 17.527344 14.296875 15.851562 18.773438 Z M 16.847656 33.46875 L 15.195312 22.363281 C 15.164062 22.363281 15.140625 22.371094 15.113281 22.371094 C 15.046875 22.371094 14.980469 22.359375 14.917969 22.347656 C 14.769531 23.292969 14.683594 24.253906 14.683594 25.226562 C 14.683594 28.199219 15.390625 31.011719 16.640625 33.507812 C 16.707031 33.488281 16.777344 33.476562 16.847656 33.46875 Z M 19.824219 26.207031 C 19.148438 25.921875 18.679688 25.253906 18.679688 24.476562 C 18.679688 23.441406 19.519531 22.601562 20.554688 22.601562 C 20.960938 22.601562 21.339844 22.738281 21.648438 22.957031 L 25.085938 19.101562 C 24.917969 18.914062 24.785156 18.695312 24.703125 18.457031 L 16.96875 20.265625 C 16.976562 20.339844 16.992188 20.417969 16.992188 20.496094 C 16.992188 21.367188 16.390625 22.097656 15.582031 22.304688 L 17.25 33.484375 C 17.363281 33.503906 17.46875 33.546875 17.570312 33.59375 Z M 17.910156 33.828125 C 18.035156 33.949219 18.136719 34.09375 18.207031 34.253906 L 23.828125 32.761719 C 23.820312 32.710938 23.8125 32.664062 23.8125 32.613281 C 23.8125 32.230469 23.980469 31.886719 24.242188 31.644531 L 21.277344 26.210938 C 21.054688 26.300781 20.8125 26.351562 20.554688 26.351562 C 20.433594 26.351562 20.316406 26.339844 20.199219 26.316406 Z M 31.425781 43.214844 L 17.957031 35.742188 C 20.960938 40.101562 25.777344 43.125 31.3125 43.710938 C 31.335938 43.539062 31.371094 43.371094 31.425781 43.214844 Z M 32.140625 42.128906 L 28.980469 37.980469 C 28.789062 38.082031 28.578125 38.144531 28.34375 38.144531 C 27.613281 38.144531 27.015625 37.550781 27.015625 36.820312 C 27.015625 36.804688 27.019531 36.792969 27.019531 36.777344 L 18.253906 35.164062 C 18.226562 35.246094 18.195312 35.324219 18.15625 35.398438 L 31.578125 42.847656 C 31.722656 42.574219 31.910156 42.332031 32.140625 42.128906 Z M 34.511719 28.667969 C 34.472656 28.65625 34.429688 28.644531 34.394531 28.628906 L 29.261719 35.867188 C 29.515625 36.109375 29.671875 36.445312 29.671875 36.820312 C 29.671875 37.179688 29.527344 37.507812 29.296875 37.746094 L 32.449219 41.886719 C 32.832031 41.640625 33.285156 41.492188 33.773438 41.484375 Z M 34.519531 41.585938 L 37.09375 33.792969 C 36.664062 33.574219 36.363281 33.128906 36.363281 32.613281 C 36.363281 32.203125 36.554688 31.839844 36.847656 31.597656 L 35.066406 28.648438 C 35.015625 28.664062 34.960938 28.679688 34.90625 28.6875 L 34.164062 41.507812 C 34.285156 41.527344 34.402344 41.554688 34.519531 41.585938 Z M 45.050781 31.855469 C 44.835938 31.691406 44.671875 31.464844 44.585938 31.199219 L 38.921875 32.121094 C 38.984375 32.277344 39.019531 32.441406 39.019531 32.613281 C 39.019531 33.347656 38.425781 33.941406 37.691406 33.941406 C 37.617188 33.941406 37.542969 33.929688 37.46875 33.917969 L 34.890625 41.71875 C 35.132812 41.832031 35.355469 41.980469 35.546875 42.160156 Z M 46.253906 38.550781 C 46.242188 38.535156 46.230469 38.519531 46.214844 38.503906 L 36.199219 43.144531 C 36.25 43.28125 36.292969 43.421875 36.320312 43.570312 C 40.148438 42.941406 43.585938 41.140625 46.253906 38.550781 Z M 46.964844 35.574219 L 46 32.105469 C 45.945312 32.113281 45.894531 32.121094 45.839844 32.121094 C 45.6875 32.121094 45.546875 32.09375 45.410156 32.042969 L 35.808594 42.453125 C 35.894531 42.558594 35.964844 42.667969 36.03125 42.785156 L 45.992188 38.175781 C 45.855469 37.914062 45.773438 37.625 45.773438 37.3125 C 45.777344 36.519531 46.269531 35.847656 46.964844 35.574219 Z M 51.84375 26.542969 C 51.632812 26.484375 51.445312 26.355469 51.324219 26.175781 L 46.953125 30.070312 C 47.085938 30.277344 47.167969 30.527344 47.167969 30.796875 C 47.167969 31.335938 46.84375 31.796875 46.382812 32.003906 L 47.34375 35.46875 C 47.445312 35.453125 47.546875 35.4375 47.652344 35.4375 C 48.015625 35.4375 48.351562 35.546875 48.640625 35.722656 C 50.460938 33.074219 51.609375 29.933594 51.84375 26.542969 Z M 53.902344 17.84375 C 53.382812 17.84375 52.964844 18.261719 52.964844 18.78125 C 52.964844 19.300781 53.382812 19.71875 53.902344 19.71875 C 54.421875 19.71875 54.839844 19.300781 54.839844 18.78125 C 54.839844 18.265625 54.417969 17.84375 53.902344 17.84375 Z M 37.121094 7.578125 C 37.878906 7.578125 37.882812 6.402344 37.121094 6.402344 C 36.363281 6.402344 36.363281 7.578125 37.121094 7.578125 Z M 46.964844 14.390625 C 47.722656 14.390625 47.726562 13.210938 46.964844 13.210938 C 46.207031 13.210938 46.203125 14.390625 46.964844 14.390625 Z M 43.945312 10.402344 C 44.703125 10.402344 44.703125 9.222656 43.945312 9.222656 C 43.183594 9.222656 43.183594 10.402344 43.945312 10.402344 Z M 43.945312 10.402344 " clip-rule="nonzero"/></clipPath><linearGradient x1="1820.417379" gradientTransform="matrix(0.0199682, 0, 0, 0.0199481, 13.237045, 5.714791)" y1="2211.28738" x2="319.07142" gradientUnits="userSpaceOnUse" y2="-198.765985" id="97f3b853b7"><stop stop-opacity="1" stop-color="rgb(7.516479%, 41.668701%, 71.578979%)" offset="0"/><stop stop-opacity="1" stop-color="rgb(7.397461%, 41.7099%, 71.612549%)" offset="0.03125"/><stop stop-opacity="1" stop-color="rgb(7.16095%, 41.793823%, 71.679688%)" offset="0.0625"/><stop stop-opacity="1" stop-color="rgb(6.924438%, 41.876221%, 71.7453%)" offset="0.09375"/><stop stop-opacity="1" stop-color="rgb(6.687927%, 41.958618%, 71.812439%)" offset="0.125"/><stop stop-opacity="1" stop-color="rgb(6.44989%, 42.042542%, 71.879578%)" offset="0.15625"/><stop stop-opacity="1" stop-color="rgb(6.213379%, 42.124939%, 71.946716%)" offset="0.1875"/><stop stop-opacity="1" stop-color="rgb(5.976868%, 42.207336%, 72.012329%)" offset="0.21875"/><stop stop-opacity="1" stop-color="rgb(5.740356%, 42.289734%, 72.079468%)" offset="0.25"/><stop stop-opacity="1" stop-color="rgb(5.503845%, 42.373657%, 72.146606%)" offset="0.28125"/><stop stop-opacity="1" stop-color="rgb(5.267334%, 42.456055%, 72.213745%)" offset="0.3125"/><stop stop-opacity="1" stop-color="rgb(5.030823%, 42.538452%, 72.279358%)" offset="0.34375"/><stop stop-opacity="1" stop-color="rgb(4.794312%, 42.62085%, 72.346497%)" offset="0.375"/><stop stop-opacity="1" stop-color="rgb(4.556274%, 42.704773%, 72.413635%)" offset="0.387981"/><stop stop-opacity="1" stop-color="rgb(4.438782%, 42.745972%, 72.447205%)" offset="0.40625"/><stop stop-opacity="1" stop-color="rgb(4.319763%, 42.78717%, 72.480774%)" offset="0.4375"/><stop stop-opacity="1" stop-color="rgb(4.083252%, 42.869568%, 72.546387%)" offset="0.46875"/><stop stop-opacity="1" stop-color="rgb(3.846741%, 42.953491%, 72.613525%)" offset="0.5"/><stop stop-opacity="1" stop-color="rgb(3.610229%, 43.035889%, 72.680664%)" offset="0.53125"/><stop stop-opacity="1" stop-color="rgb(3.373718%, 43.118286%, 72.747803%)" offset="0.5625"/><stop stop-opacity="1" stop-color="rgb(3.137207%, 43.200684%, 72.813416%)" offset="0.59375"/><stop stop-opacity="1" stop-color="rgb(2.900696%, 43.284607%, 72.880554%)" offset="0.612019"/><stop stop-opacity="1" stop-color="rgb(2.783203%, 43.325806%, 72.914124%)" offset="0.625"/><stop stop-opacity="1" stop-color="rgb(2.664185%, 43.367004%, 72.947693%)" offset="0.65625"/><stop stop-opacity="1" stop-color="rgb(2.426147%, 43.449402%, 73.014832%)" offset="0.6875"/><stop stop-opacity="1" stop-color="rgb(2.189636%, 43.531799%, 73.080444%)" offset="0.71875"/><stop stop-opacity="1" stop-color="rgb(1.953125%, 43.615723%, 73.147583%)" offset="0.75"/><stop stop-opacity="1" stop-color="rgb(1.716614%, 43.69812%, 73.214722%)" offset="0.78125"/><stop stop-opacity="1" stop-color="rgb(1.480103%, 43.780518%, 73.28186%)" offset="0.8125"/><stop stop-opacity="1" stop-color="rgb(1.243591%, 43.862915%, 73.347473%)" offset="0.84375"/><stop stop-opacity="1" stop-color="rgb(1.00708%, 43.946838%, 73.414612%)" offset="0.875"/><stop stop-opacity="1" stop-color="rgb(0.770569%, 44.029236%, 73.48175%)" offset="0.90625"/><stop stop-opacity="1" stop-color="rgb(0.532532%, 44.111633%, 73.548889%)" offset="0.9375"/><stop stop-opacity="1" stop-color="rgb(0.296021%, 44.195557%, 73.614502%)" offset="0.96875"/><stop stop-opacity="1" stop-color="rgb(0.088501%, 44.267273%, 73.674011%)" offset="1"/></linearGradient></defs><g clip-path="url(#9af851e5da)"><g clip-path="url(#599afe39a3)"><path fill="url(#97f3b853b7)" d="M 13.238281 5.714844 L 13.238281 46.554688 L 54.839844 46.554688 L 54.839844 5.714844 Z M 13.238281 5.714844 " fill-rule="nonzero"/></g></g><g fill="#ffffff" fill-opacity="1"><g transform="translate(61.808766, 29.135998)"><g><path d="M 5.984375 -4.40625 C 6.347656 -4.21875 6.628906 -3.945312 6.828125 -3.59375 C 7.035156 -3.25 7.140625 -2.851562 7.140625 -2.40625 C 7.140625 -1.96875 7.019531 -1.5625 6.78125 -1.1875 C 6.550781 -0.820312 6.234375 -0.53125 5.828125 -0.3125 C 5.429688 -0.101562 4.992188 0 4.515625 0 L 0.953125 0 L 0.953125 -8.359375 L 4.421875 -8.359375 C 4.898438 -8.359375 5.328125 -8.265625 5.703125 -8.078125 C 6.078125 -7.890625 6.375 -7.628906 6.59375 -7.296875 C 6.8125 -6.972656 6.921875 -6.609375 6.921875 -6.203125 C 6.921875 -5.847656 6.835938 -5.507812 6.671875 -5.1875 C 6.503906 -4.875 6.273438 -4.613281 5.984375 -4.40625 Z M 5.171875 -5.921875 C 5.171875 -6.179688 5.085938 -6.394531 4.921875 -6.5625 C 4.753906 -6.726562 4.523438 -6.8125 4.234375 -6.8125 L 2.734375 -6.8125 L 2.734375 -5.03125 L 4.234375 -5.03125 C 4.523438 -5.03125 4.753906 -5.113281 4.921875 -5.28125 C 5.085938 -5.445312 5.171875 -5.660156 5.171875 -5.921875 Z M 4.328125 -1.65625 C 4.628906 -1.65625 4.867188 -1.742188 5.046875 -1.921875 C 5.234375 -2.097656 5.328125 -2.328125 5.328125 -2.609375 C 5.328125 -2.878906 5.234375 -3.097656 5.046875 -3.265625 C 4.867188 -3.441406 4.628906 -3.53125 4.328125 -3.53125 L 2.734375 -3.53125 L 2.734375 -1.65625 Z M 4.328125 -1.65625 "/></g></g></g><g fill="#ffffff" fill-opacity="1"><g transform="translate(69.471999, 29.135998)"><g><path d="M 0.828125 0 L 0.828125 -8.78125 L 2.578125 -8.78125 L 2.578125 0 Z M 0.828125 0 "/></g></g></g><g fill="#ffffff" fill-opacity="1"><g transform="translate(72.885838, 29.135998)"><g><path d="M 3.90625 0.171875 C 3.238281 0.171875 2.640625 0.0234375 2.109375 -0.265625 C 1.585938 -0.566406 1.175781 -0.972656 0.875 -1.484375 C 0.570312 -1.992188 0.421875 -2.570312 0.421875 -3.21875 C 0.421875 -3.875 0.570312 -4.457031 0.875 -4.96875 C 1.175781 -5.476562 1.585938 -5.878906 2.109375 -6.171875 C 2.640625 -6.472656 3.238281 -6.625 3.90625 -6.625 C 4.5625 -6.625 5.148438 -6.472656 5.671875 -6.171875 C 6.203125 -5.878906 6.617188 -5.476562 6.921875 -4.96875 C 7.222656 -4.457031 7.375 -3.875 7.375 -3.21875 C 7.375 -2.570312 7.222656 -1.992188 6.921875 -1.484375 C 6.617188 -0.972656 6.203125 -0.566406 5.671875 -0.265625 C 5.148438 0.0234375 4.5625 0.171875 3.90625 0.171875 Z M 3.90625 -1.453125 C 4.40625 -1.453125 4.8125 -1.613281 5.125 -1.9375 C 5.445312 -2.269531 5.609375 -2.695312 5.609375 -3.21875 C 5.609375 -3.75 5.445312 -4.175781 5.125 -4.5 C 4.8125 -4.820312 4.40625 -4.984375 3.90625 -4.984375 C 3.394531 -4.984375 2.976562 -4.820312 2.65625 -4.5 C 2.34375 -4.175781 2.1875 -3.75 2.1875 -3.21875 C 2.1875 -2.695312 2.34375 -2.269531 2.65625 -1.9375 C 2.976562 -1.613281 3.394531 -1.453125 3.90625 -1.453125 Z M 3.90625 -1.453125 "/></g></g></g><g fill="#ffffff" fill-opacity="1"><g transform="translate(80.680373, 29.135998)"><g><path d="M 3.828125 0.171875 C 3.179688 0.171875 2.597656 0.0195312 2.078125 -0.28125 C 1.566406 -0.582031 1.160156 -0.988281 0.859375 -1.5 C 0.566406 -2.019531 0.421875 -2.601562 0.421875 -3.25 C 0.421875 -3.894531 0.566406 -4.46875 0.859375 -4.96875 C 1.160156 -5.476562 1.566406 -5.878906 2.078125 -6.171875 C 2.597656 -6.472656 3.1875 -6.625 3.84375 -6.625 C 4.394531 -6.625 4.898438 -6.515625 5.359375 -6.296875 C 5.816406 -6.078125 6.195312 -5.769531 6.5 -5.375 C 6.8125 -4.976562 7.019531 -4.515625 7.125 -3.984375 L 5.390625 -3.984375 C 5.253906 -4.304688 5.046875 -4.550781 4.765625 -4.71875 C 4.492188 -4.894531 4.179688 -4.984375 3.828125 -4.984375 C 3.515625 -4.984375 3.234375 -4.90625 2.984375 -4.75 C 2.734375 -4.601562 2.535156 -4.394531 2.390625 -4.125 C 2.253906 -3.863281 2.1875 -3.566406 2.1875 -3.234375 C 2.1875 -2.898438 2.253906 -2.597656 2.390625 -2.328125 C 2.535156 -2.066406 2.734375 -1.851562 2.984375 -1.6875 C 3.234375 -1.53125 3.515625 -1.453125 3.828125 -1.453125 C 4.191406 -1.453125 4.503906 -1.546875 4.765625 -1.734375 C 5.035156 -1.921875 5.242188 -2.191406 5.390625 -2.546875 L 7.15625 -2.546875 C 7.050781 -2.003906 6.84375 -1.523438 6.53125 -1.109375 C 6.21875 -0.703125 5.828125 -0.382812 5.359375 -0.15625 C 4.898438 0.0625 4.390625 0.171875 3.828125 0.171875 Z M 3.828125 0.171875 "/></g></g></g><g fill="#ffffff" fill-opacity="1"><g transform="translate(88.140685, 29.135998)"><g><path d="M 6.75 0 L 4.640625 0 L 2.578125 -3.078125 L 2.578125 0 L 0.828125 0 L 0.828125 -8.78125 L 2.578125 -8.78125 L 2.578125 -3.578125 L 4.515625 -6.453125 L 6.515625 -6.453125 L 4.34375 -3.375 Z M 6.75 0 "/></g></g></g><g fill="#ffffff" fill-opacity="1"><g transform="translate(94.83706, 29.135998)"><g><path d="M 5.984375 -4.40625 C 6.347656 -4.21875 6.628906 -3.945312 6.828125 -3.59375 C 7.035156 -3.25 7.140625 -2.851562 7.140625 -2.40625 C 7.140625 -1.96875 7.019531 -1.5625 6.78125 -1.1875 C 6.550781 -0.820312 6.234375 -0.53125 5.828125 -0.3125 C 5.429688 -0.101562 4.992188 0 4.515625 0 L 0.953125 0 L 0.953125 -8.359375 L 4.421875 -8.359375 C 4.898438 -8.359375 5.328125 -8.265625 5.703125 -8.078125 C 6.078125 -7.890625 6.375 -7.628906 6.59375 -7.296875 C 6.8125 -6.972656 6.921875 -6.609375 6.921875 -6.203125 C 6.921875 -5.847656 6.835938 -5.507812 6.671875 -5.1875 C 6.503906 -4.875 6.273438 -4.613281 5.984375 -4.40625 Z M 5.171875 -5.921875 C 5.171875 -6.179688 5.085938 -6.394531 4.921875 -6.5625 C 4.753906 -6.726562 4.523438 -6.8125 4.234375 -6.8125 L 2.734375 -6.8125 L 2.734375 -5.03125 L 4.234375 -5.03125 C 4.523438 -5.03125 4.753906 -5.113281 4.921875 -5.28125 C 5.085938 -5.445312 5.171875 -5.660156 5.171875 -5.921875 Z M 4.328125 -1.65625 C 4.628906 -1.65625 4.867188 -1.742188 5.046875 -1.921875 C 5.234375 -2.097656 5.328125 -2.328125 5.328125 -2.609375 C 5.328125 -2.878906 5.234375 -3.097656 5.046875 -3.265625 C 4.867188 -3.441406 4.628906 -3.53125 4.328125 -3.53125 L 2.734375 -3.53125 L 2.734375 -1.65625 Z M 4.328125 -1.65625 "/></g></g></g><g fill="#ffffff" fill-opacity="1"><g transform="translate(102.500294, 29.135998)"><g><path d="M 3.90625 0.171875 C 3.238281 0.171875 2.640625 0.0234375 2.109375 -0.265625 C 1.585938 -0.566406 1.175781 -0.972656 0.875 -1.484375 C 0.570312 -1.992188 0.421875 -2.570312 0.421875 -3.21875 C 0.421875 -3.875 0.570312 -4.457031 0.875 -4.96875 C 1.175781 -5.476562 1.585938 -5.878906 2.109375 -6.171875 C 2.640625 -6.472656 3.238281 -6.625 3.90625 -6.625 C 4.5625 -6.625 5.148438 -6.472656 5.671875 -6.171875 C 6.203125 -5.878906 6.617188 -5.476562 6.921875 -4.96875 C 7.222656 -4.457031 7.375 -3.875 7.375 -3.21875 C 7.375 -2.570312 7.222656 -1.992188 6.921875 -1.484375 C 6.617188 -0.972656 6.203125 -0.566406 5.671875 -0.265625 C 5.148438 0.0234375 4.5625 0.171875 3.90625 0.171875 Z M 3.90625 -1.453125 C 4.40625 -1.453125 4.8125 -1.613281 5.125 -1.9375 C 5.445312 -2.269531 5.609375 -2.695312 5.609375 -3.21875 C 5.609375 -3.75 5.445312 -4.175781 5.125 -4.5 C 4.8125 -4.820312 4.40625 -4.984375 3.90625 -4.984375 C 3.394531 -4.984375 2.976562 -4.820312 2.65625 -4.5 C 2.34375 -4.175781 2.1875 -3.75 2.1875 -3.21875 C 2.1875 -2.695312 2.34375 -2.269531 2.65625 -1.9375 C 2.976562 -1.613281 3.394531 -1.453125 3.90625 -1.453125 Z M 3.90625 -1.453125 "/></g></g></g><g fill="#ffffff" fill-opacity="1"><g transform="translate(110.294829, 29.135998)"><g><path d="M 6.09375 -6.453125 L 7.40625 -6.453125 L 7.40625 -0.015625 L 6.03125 -0.015625 L 5.890625 -0.578125 C 5.609375 -0.347656 5.289062 -0.164062 4.9375 -0.03125 C 4.582031 0.101562 4.203125 0.171875 3.796875 0.171875 C 3.148438 0.171875 2.570312 0.0234375 2.0625 -0.265625 C 1.550781 -0.566406 1.148438 -0.972656 0.859375 -1.484375 C 0.566406 -1.992188 0.421875 -2.578125 0.421875 -3.234375 C 0.421875 -3.878906 0.566406 -4.457031 0.859375 -4.96875 C 1.148438 -5.476562 1.550781 -5.878906 2.0625 -6.171875 C 2.570312 -6.472656 3.148438 -6.625 3.796875 -6.625 C 4.210938 -6.625 4.597656 -6.550781 4.953125 -6.40625 C 5.304688 -6.269531 5.625 -6.082031 5.90625 -5.84375 Z M 3.9375 -1.46875 C 4.269531 -1.46875 4.566406 -1.539062 4.828125 -1.6875 C 5.097656 -1.84375 5.304688 -2.050781 5.453125 -2.3125 C 5.609375 -2.582031 5.6875 -2.890625 5.6875 -3.234375 C 5.6875 -3.566406 5.609375 -3.863281 5.453125 -4.125 C 5.304688 -4.394531 5.097656 -4.609375 4.828125 -4.765625 C 4.566406 -4.921875 4.269531 -5 3.9375 -5 C 3.59375 -5 3.289062 -4.921875 3.03125 -4.765625 C 2.769531 -4.609375 2.5625 -4.394531 2.40625 -4.125 C 2.257812 -3.863281 2.1875 -3.566406 2.1875 -3.234375 C 2.1875 -2.890625 2.257812 -2.585938 2.40625 -2.328125 C 2.5625 -2.066406 2.769531 -1.859375 3.03125 -1.703125 C 3.289062 -1.546875 3.59375 -1.46875 3.9375 -1.46875 Z M 3.9375 -1.46875 "/></g></g></g><g fill="#ffffff" fill-opacity="1"><g transform="translate(118.531013, 29.135998)"><g><path d="M 4.125 -6.484375 L 4.703125 -6.484375 L 4.703125 -4.828125 L 3.953125 -4.828125 C 3.460938 -4.828125 3.109375 -4.710938 2.890625 -4.484375 C 2.679688 -4.253906 2.578125 -3.878906 2.578125 -3.359375 L 2.578125 0 L 0.828125 0 L 0.828125 -6.453125 L 1.953125 -6.453125 L 2.265625 -5.65625 C 2.703125 -6.207031 3.320312 -6.484375 4.125 -6.484375 Z M 4.125 -6.484375 "/></g></g></g><g fill="#ffffff" fill-opacity="1"><g transform="translate(123.389166, 29.135998)"><g><path d="M 5.578125 -8.78125 L 7.3125 -8.78125 L 7.3125 0 L 6.03125 0 L 5.828125 -0.53125 C 5.554688 -0.300781 5.25 -0.125 4.90625 0 C 4.5625 0.125 4.195312 0.1875 3.8125 0.1875 C 3.15625 0.1875 2.570312 0.0390625 2.0625 -0.25 C 1.550781 -0.550781 1.148438 -0.957031 0.859375 -1.46875 C 0.566406 -1.988281 0.421875 -2.570312 0.421875 -3.21875 C 0.421875 -3.875 0.566406 -4.457031 0.859375 -4.96875 C 1.148438 -5.476562 1.550781 -5.878906 2.0625 -6.171875 C 2.570312 -6.472656 3.15625 -6.625 3.8125 -6.625 C 4.132812 -6.625 4.441406 -6.578125 4.734375 -6.484375 C 5.035156 -6.390625 5.316406 -6.257812 5.578125 -6.09375 Z M 3.9375 -1.453125 C 4.28125 -1.453125 4.582031 -1.53125 4.84375 -1.6875 C 5.101562 -1.84375 5.3125 -2.050781 5.46875 -2.3125 C 5.625 -2.582031 5.703125 -2.882812 5.703125 -3.21875 C 5.703125 -3.550781 5.625 -3.851562 5.46875 -4.125 C 5.3125 -4.394531 5.101562 -4.601562 4.84375 -4.75 C 4.582031 -4.90625 4.28125 -4.984375 3.9375 -4.984375 C 3.601562 -4.984375 3.304688 -4.90625 3.046875 -4.75 C 2.785156 -4.601562 2.578125 -4.394531 2.421875 -4.125 C 2.265625 -3.851562 2.1875 -3.550781 2.1875 -3.21875 C 2.1875 -2.882812 2.265625 -2.582031 2.421875 -2.3125 C 2.578125 -2.050781 2.785156 -1.84375 3.046875 -1.6875 C 3.304688 -1.53125 3.601562 -1.453125 3.9375 -1.453125 Z M 3.9375 -1.453125 "/></g></g></g></svg>